<svg xmlns="http://www.w3.org/2000/svg" id="Layer_1" viewBox="0 0 256 256" width="256" height="256"><style>.st0{fill:#2b4271}</style><path d="M128 98.3c-16.4 0-29.7 13.3-29.7 29.7s13.3 29.7 29.7 29.7c8.2 0 15.6-3.3 21-8.7s8.7-12.8 8.7-21c0-16.4-13.3-29.7-29.7-29.7zm0 0c-16.4 0-29.7 13.3-29.7 29.7s13.3 29.7 29.7 29.7c8.2 0 15.6-3.3 21-8.7s8.7-12.8 8.7-21c0-16.4-13.3-29.7-29.7-29.7zm72.5-6.3c-.4-8.7-1.8-13.4-3-16.6-3.1-7.7-9.2-13.8-16.9-16.9-3.2-1.2-7.2-2.5-16.6-3s-12.2-.6-36-.6-27.3.2-36 .6-13.4 1.8-16.6 3c-7.7 3.1-13.8 9.2-16.9 16.9-1.2 3.2-2.5 7.2-3 16.6s-.6 12.2-.6 36 .2 27.3.6 36 1.8 13.4 3 16.6c3.1 7.7 9.2 13.8 16.9 16.9 3.2 1.2 7.2 2.5 16.6 3s12.2.6 36 .6 27.3-.2 36-.6 13.4-1.8 16.6-3c7.7-3.1 13.8-9.2 16.9-16.9 1.2-3.2 2.5-7.2 3-16.6s.6-12.2.6-36-.2-27.3-.6-36zM128 173.8c-25.3 0-45.8-20.5-45.8-45.8s20.5-45.8 45.8-45.8 45.8 20.5 45.8 45.8-20.5 45.8-45.8 45.8zm47.6-82.7c-5.9 0-10.7-4.8-10.7-10.7 0-5.9 4.8-10.7 10.7-10.7s10.7 4.8 10.7 10.7c0 5.9-4.8 10.7-10.7 10.7zM128 98.3c-16.4 0-29.7 13.3-29.7 29.7s13.3 29.7 29.7 29.7c8.2 0 15.6-3.3 21-8.7s8.7-12.8 8.7-21c0-16.4-13.3-29.7-29.7-29.7zm72.5-6.3c-.4-8.7-1.8-13.4-3-16.6-3.1-7.7-9.2-13.8-16.9-16.9-3.2-1.2-7.2-2.5-16.6-3s-12.2-.6-36-.6-27.3.2-36 .6-13.4 1.8-16.6 3c-7.7 3.1-13.8 9.2-16.9 16.9-1.2 3.2-2.5 7.2-3 16.6s-.6 12.2-.6 36 .2 27.3.6 36 1.8 13.4 3 16.6c3.1 7.7 9.2 13.8 16.9 16.9 3.2 1.2 7.2 2.5 16.6 3s12.2.6 36 .6 27.3-.2 36-.6 13.4-1.8 16.6-3c7.7-3.1 13.8-9.2 16.9-16.9 1.2-3.2 2.5-7.2 3-16.6s.6-12.2.6-36-.2-27.3-.6-36zM128 173.8c-25.3 0-45.8-20.5-45.8-45.8s20.5-45.8 45.8-45.8 45.8 20.5 45.8 45.8-20.5 45.8-45.8 45.8zm47.6-82.7c-5.9 0-10.7-4.8-10.7-10.7 0-5.9 4.8-10.7 10.7-10.7s10.7 4.8 10.7 10.7c0 5.9-4.8 10.7-10.7 10.7zM128 98.3c-16.4 0-29.7 13.3-29.7 29.7s13.3 29.7 29.7 29.7c8.2 0 15.6-3.3 21-8.7s8.7-12.8 8.7-21c0-16.4-13.3-29.7-29.7-29.7zM219.5 1h-183C16.9 1 1 16.9 1 36.5v183C1 239.1 16.9 255 36.5 255h183c19.6 0 35.5-15.9 35.5-35.5v-183C255 16.9 239.1 1 219.5 1zm-2.9 163.7c-.1 7.4-1.6 14.8-4.2 21.7-4.5 12-14 21.5-26 26-6.9 2.6-14.3 4-21.7 4.2-9.5.4-12.5.5-36.7.5s-27.2-.1-36.7-.5c-7.4-.1-14.8-1.6-21.7-4.2-12-4.5-21.5-14-26-26-2.6-6.9-4-14.3-4.2-21.7-.4-9.5-.5-12.5-.5-36.7s.1-27.2.5-36.7c.1-7.4 1.6-14.8 4.2-21.7 4.5-12 14-21.5 26-26 6.9-2.6 14.3-4 21.7-4.2 9.5-.4 12.5-.5 36.7-.5s27.2.1 36.7.5c7.4.1 14.8 1.6 21.7 4.2 12 4.5 21.5 14 26 26 2.6 6.9 4 14.3 4.2 21.7.4 9.5.5 12.5.5 36.7s-.1 27.2-.5 36.7zm-19.1-89.3c-3.1-7.7-9.2-13.8-16.9-16.9-3.2-1.2-7.2-2.5-16.6-3s-12.2-.6-36-.6-27.3.2-36 .6-13.4 1.8-16.6 3c-7.7 3.1-13.8 9.2-16.9 16.9-1.2 3.2-2.5 7.2-3 16.6s-.6 12.2-.6 36 .2 27.3.6 36 1.8 13.4 3 16.6c3.1 7.7 9.2 13.8 16.9 16.9 3.2 1.2 7.2 2.5 16.6 3s12.2.6 36 .6 27.3-.2 36-.6 13.4-1.8 16.6-3c7.7-3.1 13.8-9.2 16.9-16.9 1.2-3.2 2.5-7.2 3-16.6s.6-12.2.6-36-.2-27.3-.6-36-1.8-13.4-3-16.6zM128 173.8c-25.3 0-45.8-20.5-45.8-45.8s20.5-45.8 45.8-45.8 45.8 20.5 45.8 45.8-20.5 45.8-45.8 45.8zm47.6-82.7c-5.9 0-10.7-4.8-10.7-10.7 0-5.9 4.8-10.7 10.7-10.7s10.7 4.8 10.7 10.7c0 5.9-4.8 10.7-10.7 10.7zM128 98.3c-16.4 0-29.7 13.3-29.7 29.7s13.3 29.7 29.7 29.7c8.2 0 15.6-3.3 21-8.7s8.7-12.8 8.7-21c0-16.4-13.3-29.7-29.7-29.7zm0 0c-16.4 0-29.7 13.3-29.7 29.7s13.3 29.7 29.7 29.7c8.2 0 15.6-3.3 21-8.7s8.7-12.8 8.7-21c0-16.4-13.3-29.7-29.7-29.7zm0 0c-16.4 0-29.7 13.3-29.7 29.7s13.3 29.7 29.7 29.7c8.2 0 15.6-3.3 21-8.7s8.7-12.8 8.7-21c0-16.4-13.3-29.7-29.7-29.7zm72.5-6.3c-.4-8.7-1.8-13.4-3-16.6-3.1-7.7-9.2-13.8-16.9-16.9-3.2-1.2-7.2-2.5-16.6-3s-12.2-.6-36-.6-27.3.2-36 .6-13.4 1.8-16.6 3c-7.7 3.1-13.8 9.2-16.9 16.9-1.2 3.2-2.5 7.2-3 16.6s-.6 12.2-.6 36 .2 27.3.6 36 1.8 13.4 3 16.6c3.1 7.7 9.2 13.8 16.9 16.9 3.2 1.2 7.2 2.5 16.6 3s12.2.6 36 .6 27.3-.2 36-.6 13.4-1.8 16.6-3c7.7-3.1 13.8-9.2 16.9-16.9 1.2-3.2 2.5-7.2 3-16.6s.6-12.2.6-36-.2-27.3-.6-36zM128 173.8c-25.3 0-45.8-20.5-45.8-45.8s20.5-45.8 45.8-45.8 45.8 20.5 45.8 45.8-20.5 45.8-45.8 45.8zm47.6-82.7c-5.9 0-10.7-4.8-10.7-10.7 0-5.9 4.8-10.7 10.7-10.7s10.7 4.8 10.7 10.7c0 5.9-4.8 10.7-10.7 10.7zM128 98.3c-16.4 0-29.7 13.3-29.7 29.7s13.3 29.7 29.7 29.7c8.2 0 15.6-3.3 21-8.7s8.7-12.8 8.7-21c0-16.4-13.3-29.7-29.7-29.7zm0 0c-16.4 0-29.7 13.3-29.7 29.7s13.3 29.7 29.7 29.7c8.2 0 15.6-3.3 21-8.7s8.7-12.8 8.7-21c0-16.4-13.3-29.7-29.7-29.7zm0 0c-16.4 0-29.7 13.3-29.7 29.7s13.3 29.7 29.7 29.7c8.2 0 15.6-3.3 21-8.7s8.7-12.8 8.7-21c0-16.4-13.3-29.7-29.7-29.7zm72.5-6.3c-.4-8.7-1.8-13.4-3-16.6-3.1-7.7-9.2-13.8-16.9-16.9-3.2-1.2-7.2-2.5-16.6-3s-12.2-.6-36-.6-27.3.2-36 .6-13.4 1.8-16.6 3c-7.7 3.1-13.8 9.2-16.9 16.9-1.2 3.2-2.5 7.2-3 16.6s-.6 12.2-.6 36 .2 27.3.6 36 1.8 13.4 3 16.6c3.1 7.7 9.2 13.8 16.9 16.9 3.2 1.2 7.2 2.5 16.6 3s12.2.6 36 .6 27.3-.2 36-.6 13.4-1.8 16.6-3c7.7-3.1 13.8-9.2 16.9-16.9 1.2-3.2 2.5-7.2 3-16.6s.6-12.2.6-36-.2-27.3-.6-36zM128 173.8c-25.3 0-45.8-20.5-45.8-45.8s20.5-45.8 45.8-45.8 45.8 20.5 45.8 45.8-20.5 45.8-45.8 45.8zm47.6-82.7c-5.9 0-10.7-4.8-10.7-10.7 0-5.9 4.8-10.7 10.7-10.7s10.7 4.8 10.7 10.7c0 5.9-4.8 10.7-10.7 10.7zM128 98.3c-16.4 0-29.7 13.3-29.7 29.7s13.3 29.7 29.7 29.7c8.2 0 15.6-3.3 21-8.7s8.7-12.8 8.7-21c0-16.4-13.3-29.7-29.7-29.7z" class="st0"/></svg>