<svg xmlns="http://www.w3.org/2000/svg" id="Layer_1" viewBox="0 0 256 256" width="256" height="256"><style>.st0{fill:#2b4271}</style><path d="M219.5 1h-183C16.9 1 1 16.9 1 36.5v183C1 239.1 16.9 255 36.5 255h183c19.6 0 35.5-15.9 35.5-35.5v-183C255 16.9 239.1 1 219.5 1zm-9.7 130.6c-.1 8.8-.6 17.5-1.7 26.2 0 0-1.8 11.2-6.6 16.1-6.1 6.5-13 6.5-16.2 6.9-22.7 1.6-56.8 1.6-56.8 1.6s-42.1-.3-55.2-1.6c-3.6-.7-11.7-.4-17.9-6.9-4.9-4.9-6.6-16.1-6.6-16.1-1.1-8.7-1.6-17.4-1.7-26.2v-12.3c.1-8.8.6-17.6 1.7-26.3 0 0 1.7-11.2 6.6-16.1 6.1-6.5 13-6.6 16.2-7 22.7-1.6 56.8-1.9 56.8-1.9s34 .3 56.8 1.9c3.1.3 10.1.6 16.3 7.1 4.9 4.9 6.6 16.1 6.6 16.1 1.1 8.7 1.6 17.4 1.7 26.2v12.3zm-98.1 14.9l43.8-22.7-43.8-22.8v45.5z" class="st0"/></svg>